<svg width="20" height="20" viewBox="0 0 20 20" fill="none" xmlns="http://www.w3.org/2000/svg">
<path d="M13.7495 0L6.24951 0C2.79826 0 -0.000488281 2.79875 -0.000488281 6.25L-0.000488281 13.75C-0.000488281 17.2013 2.79826 20 6.24951 20L13.7495 20C17.2008 20 19.9995 17.2013 19.9995 13.75L19.9995 6.25C19.9995 2.79875 17.2008 0 13.7495 0ZM18.1245 13.75C18.1245 16.1625 16.162 18.125 13.7495 18.125L6.24951 18.125C3.83701 18.125 1.87451 16.1625 1.87451 13.75L1.87451 6.25C1.87451 3.8375 3.83701 1.875 6.24951 1.875L13.7495 1.875C16.162 1.875 18.1245 3.8375 18.1245 6.25L18.1245 13.75Z" fill="black"/>
<path d="M8.91709 5.11856C6.22131 5.71628 4.52026 8.38657 5.11798 11.0823C5.7157 13.7781 8.38599 15.4792 11.0818 14.8815C13.7776 14.2837 15.4786 11.6135 14.8809 8.91767C14.2832 6.22189 11.6129 4.52084 8.91709 5.11856ZM10.6759 13.0509C8.99423 13.4238 7.32139 12.3581 6.94853 10.6765C6.57539 8.99359 7.64131 7.32197 9.32297 6.9491C11.0046 6.57624 12.6772 7.64067 13.0503 9.32355C13.4232 11.0052 12.3576 12.678 10.6759 13.0509Z" fill="black"/>
<path d="M15.3745 5.29123C15.7425 5.29123 16.0408 4.99295 16.0408 4.62499C16.0408 4.25703 15.7425 3.95874 15.3745 3.95874C15.0065 3.95874 14.7083 4.25703 14.7083 4.62499C14.7083 4.99295 15.0065 5.29123 15.3745 5.29123Z" fill="black"/>
</svg>
